{
  "source": "C:\\Users\\Peter\\Desktop\\stuff\\MIUN\\quantitative_research\\video_compression\\videos\\BVI-HD\\BVI-HD_CDVL_videos\\ORIG\\Hamster_1920x1080_60fps.mp4",
  "output": "C:\\Users\\Peter\\Desktop\\stuff\\MIUN\\quantitative_research\\video_compression\\compressed_videos\\BVI-HD\\h264\\4\\Hamster_1920x1080_60fps_h264.mp4",
  "codec": "h264",
  "ok": "Input #0, mov,mp4,m4a,3gp,3g2,mj2, from 'C:\\Users\\Peter\\Desktop\\stuff\\MIUN\\quantitative_research\\video_compression\\videos\\BVI-HD\\BVI-HD_CDVL_videos\\ORIG\\Hamster_1920x1080_60fps.mp4':\n  Metadata:\n    major_brand     : isom\n    minor_version   : 512\n    compatible_brands: isomiso2avc1mp41\n    encoder         : Lavf54.28.101\n  Duration: 00:00:05.00, start: 0.000000, bitrate: 208485 kb/s\n  Stream #0:0[0x1](und): Video: h264 (High 4:4:4 Predictive) (avc1 / 0x31637661), yuv420p(progressive), 1920x1080, 208481 kb/s, 60 fps, 60 tbr, 60 tbn (default)\n    Metadata:\n      handler_name    : VideoHandler\n      vendor_id       : [0][0][0][0]\n[out#0/mp4 @ 00000283e4699bc0] Codec AVOption b:a (set bitrate (in bits/s)) has not been used for any stream. The most likely reason is either wrong type (e.g. a video option with no video streams) or that it is a private option of some decoder which was not actually used for any stream.\nStream mapping:\n  Stream #0:0 -> #0:0 (h264 (native) -> h264 (libx264))\nPress [q] to stop, [?] for help\n[libx264 @ 00000283e640ac40] using cpu capabilities: MMX2 SSE2Fast SSSE3 SSE4.2 AVX FMA3 BMI2 AVX2\n[libx264 @ 00000283e640ac40] profile High, level 5.0, 4:2:0, 8-bit\n[libx264 @ 00000283e640ac40] 264 - core 165 r3222 b35605a - H.264/MPEG-4 AVC codec - Copyleft 2003-2025 - http://www.videolan.org/x264.html - options: cabac=1 ref=5 deblock=1:0:0 analyse=0x3:0x113 me=hex subme=8 psy=1 psy_rd=1.00:0.00 mixed_ref=1 me_range=16 chroma_me=1 trellis=2 8x8dct=1 cqm=0 deadzone=21,11 fast_pskip=1 chroma_qp_offset=-2 threads=18 lookahead_threads=3 sliced_threads=0 nr=0 decimate=1 interlaced=0 bluray_compat=0 constrained_intra=0 bframes=3 b_pyramid=2 b_adapt=1 b_bias=0 direct=3 weightb=1 open_gop=0 weightp=2 keyint=250 keyint_min=25 scenecut=40 intra_refresh=0 rc_lookahead=50 rc=cbr mbtree=1 bitrate=4000 ratetol=1.0 qcomp=0.60 qpmin=0 qpmax=69 qpstep=4 vbv_maxrate=4000 vbv_bufsize=4000 nal_hrd=none filler=0 ip_ratio=1.40 aq=1:1.00\nOutput #0, mp4, to 'C:\\Users\\Peter\\Desktop\\stuff\\MIUN\\quantitative_research\\video_compression\\compressed_videos\\BVI-HD\\h264\\4\\Hamster_1920x1080_60fps_h264.mp4':\n  Metadata:\n    major_brand     : isom\n    minor_version   : 512\n    compatible_brands: isomiso2avc1mp41\n    encoder         : Lavf62.3.100\n  Stream #0:0(und): Video: h264 (avc1 / 0x31637661), yuv420p(tv, progressive), 1920x1080, q=2-31, 4000 kb/s, 60 fps, 15360 tbn (default)\n    Metadata:\n      encoder         : Lavc62.11.100 libx264\n      handler_name    : VideoHandler\n      vendor_id       : [0][0][0][0]\n    Side data:\n      cpb: bitrate max/min/avg: 4000000/0/4000000 buffer size: 4000000 vbv_delay: N/A\nframe=    0 fps=0.0 q=0.0 size=       0KiB time=N/A bitrate=N/A speed=N/A elapsed=0:00:00.50    \nframe=    0 fps=0.0 q=0.0 size=       0KiB time=N/A bitrate=N/A speed=N/A elapsed=0:00:01.15    \nframe=   26 fps= 15 q=33.0 size=       0KiB time=00:00:00.38 bitrate=   1.0kbits/s speed=0.225x elapsed=0:00:01.70    \nframe=   56 fps= 25 q=33.0 size=     256KiB time=00:00:00.85 bitrate=2467.7kbits/s speed=0.379x elapsed=0:00:02.24    \nframe=   88 fps= 31 q=34.0 size=     512KiB time=00:00:01.36 bitrate=3069.3kbits/s speed=0.483x elapsed=0:00:02.82    \nframe=  105 fps= 30 q=34.0 size=     768KiB time=00:00:01.66 bitrate=3775.1kbits/s speed=0.48x elapsed=0:00:03.47    \nframe=  133 fps= 32 q=35.0 size=    1024KiB time=00:00:02.18 bitrate=3842.3kbits/s speed=0.533x elapsed=0:00:04.09    \nframe=  161 fps= 34 q=35.0 size=    1280KiB time=00:00:02.63 bitrate=3982.1kbits/s speed=0.562x elapsed=0:00:04.68    \nframe=  186 fps= 35 q=35.0 size=    1280KiB time=00:00:03.05 bitrate=3438.1kbits/s speed=0.58x elapsed=0:00:05.26    \nframe=  217 fps= 37 q=37.0 size=    1536KiB time=00:00:03.58 bitrate=3511.6kbits/s speed=0.616x elapsed=0:00:05.81    \nframe=  242 fps= 38 q=37.0 size=    2048KiB time=00:00:04.00 bitrate=4194.4kbits/s speed=0.628x elapsed=0:00:06.36    \nframe=  291 fps= 42 q=-1.0 size=    2304KiB time=00:00:04.76 bitrate=3959.7kbits/s speed=0.693x elapsed=0:00:06.87    \n[mp4 @ 00000283e46a14c0] Starting second pass: moving the moov atom to the beginning of the file\n[out#0/mp4 @ 00000283e4699bc0] video:2465KiB audio:0KiB subtitle:0KiB other streams:0KiB global headers:0KiB muxing overhead: 0.177122%\nframe=  300 fps= 43 q=-1.0 Lsize=    2469KiB time=00:00:04.96 bitrate=4073.1kbits/s speed=0.706x elapsed=0:00:07.03    \n[libx264 @ 00000283e640ac40] frame I:2     Avg QP:29.78  size: 36345\n[libx264 @ 00000283e640ac40] frame P:76    Avg QP:32.08  size: 14029\n[libx264 @ 00000283e640ac40] frame B:222   Avg QP:34.78  size:  6237\n[libx264 @ 00000283e640ac40] consecutive B-frames:  1.0%  0.0%  3.0% 96.0%\n[libx264 @ 00000283e640ac40] mb I  I16..4: 10.5% 85.0%  4.5%\n[libx264 @ 00000283e640ac40] mb P  I16..4:  2.5% 13.7%  0.4%  P16..4: 21.7%  2.8%  1.3%  0.0%  0.0%    skip:57.6%\n[libx264 @ 00000283e640ac40] mb B  I16..4:  0.4%  1.8%  0.1%  B16..8: 22.8%  2.3%  0.2%  direct: 0.8%  skip:71.6%  L0:52.1% L1:45.2% BI: 2.7%\n[libx264 @ 00000283e640ac40] 8x8 transform intra:81.9% inter:92.4%\n[libx264 @ 00000283e640ac40] direct mvs  spatial:95.5% temporal:4.5%\n[libx264 @ 00000283e640ac40] coded y,uvDC,uvAC intra: 32.5% 52.4% 17.9% inter: 3.4% 6.4% 0.2%\n[libx264 @ 00000283e640ac40] i16 v,h,dc,p: 29% 31%  6% 34%\n[libx264 @ 00000283e640ac40] i8 v,h,dc,ddl,ddr,vr,hd,vl,hu: 17% 12% 31%  4%  7%  7%  9%  5%  7%\n[libx264 @ 00000283e640ac40] i4 v,h,dc,ddl,ddr,vr,hd,vl,hu: 13% 15% 19%  7% 13%  9% 13%  5%  6%\n[libx264 @ 00000283e640ac40] i8c dc,h,v,p: 63% 16% 13%  8%\n[libx264 @ 00000283e640ac40] Weighted P-Frames: Y:0.0% UV:0.0%\n[libx264 @ 00000283e640ac40] ref P L0: 44.5% 11.9% 21.3%  9.9% 12.3%\n[libx264 @ 00000283e640ac40] ref B L0: 70.4% 19.4%  7.9%  2.3%\n[libx264 @ 00000283e640ac40] ref B L1: 92.2%  7.8%\n[libx264 @ 00000283e640ac40] kb/s:4037.58\n",
  "seconds": 7.3772783279418945,
  "probe_out": {}
}